<svg id="Layer_2" data-name="Layer 2" xmlns="http://www.w3.org/2000/svg" xmlns:xlink="http://www.w3.org/1999/xlink" viewBox="0 0 1200 656"><defs><style>.cls-1{fill:#00bfd8;}.cls-2{fill:#009193;}.cls-3,.cls-9{opacity:0.2;}.cls-13,.cls-16,.cls-18,.cls-3{isolation:isolate;}.cls-18,.cls-4{fill:#fff;}.cls-5{fill:#e1e1e1;}.cls-6{fill:url(#linear-gradient);}.cls-7{fill:#007cf8;}.cls-8{fill:#003948;}.cls-10{fill:#008bef;}.cls-11{fill:#182632;}.cls-12{fill:#dc3645;}.cls-13{opacity:0.8;fill:url(#linear-gradient-2);}.cls-14{fill:#bbb;}.cls-15{fill:#384444;}.cls-16{fill:#436867;opacity:0.57;}.cls-17{fill:#f1bc03;}.cls-18{opacity:0.5;}</style><linearGradient id="linear-gradient" x1="176.65" y1="111.28" x2="176.65" y2="290.92" gradientTransform="matrix(1, 0, 0, -1, 0, 658)" gradientUnits="userSpaceOnUse"><stop offset="0" stop-color="#fff"/><stop offset="0.22" stop-color="#fff" stop-opacity="0.76"/><stop offset="0.6" stop-color="#fff" stop-opacity="0.36"/><stop offset="0.87" stop-color="#fff" stop-opacity="0.1"/><stop offset="1" stop-color="#fff" stop-opacity="0"/></linearGradient><linearGradient id="linear-gradient-2" x1="601.11" y1="1652.25" x2="601.11" y2="-71.52" xlink:href="#linear-gradient"/></defs><title>video-frame final</title><rect class="cls-1" width="1200" height="656"/><rect class="cls-2" y="441.26" width="1200" height="214.74"/><ellipse class="cls-3" cx="176.65" cy="592.71" rx="67.26" ry="10.06"/><path class="cls-4" d="M233.07,507.16a28.52,28.52,0,1,0-8.67,55.65l.88,0a28.52,28.52,0,0,0,7.79-55.63Zm-.25,41.29a16.54,16.54,0,1,1,8-14.25A16.55,16.55,0,0,1,232.82,548.45Z"/><path class="cls-5" d="M224.34,550.84a16.48,16.48,0,0,0,8.48-2.39c-1.43,5.89-3.8,11-7.54,14.34l-.88,0a28.52,28.52,0,1,1,8.67-55.65c.44,3.09,1.09,8.19,1.44,14.14a16.55,16.55,0,1,0-10.17,29.54Z"/><path class="cls-4" d="M227.77,494.47l.22,40.31a51.62,51.62,0,0,1-103.23.55l-.22-40.3Z"/><path class="cls-5" d="M212,592.86l-70.61.38a7.19,7.19,0,0,1-7.21-7.14h0a7.19,7.19,0,0,1,7.14-7.21l70.6-.38a7.2,7.2,0,0,1,7.22,7.14h0A7.19,7.19,0,0,1,212,592.86Z"/><path class="cls-5" d="M217.12,566.74a51.63,51.63,0,0,1-12.94,11.81l-55.14.3a51.65,51.65,0,0,1-24.28-43.51L124.54,495l30.75-.16.06,10.76a61.44,61.44,0,0,0,61.77,61.11Z"/><path class="cls-6" d="M157.46,481s-11.85-8.57-8.39-25.36,17.28-19.26,13.33-45.43-5.93-49.87,5.43-63.7h37s-13,35.18-4.07,58.89,1.05,33.45-6.82,46.78S198,481,198,481Z"/><rect class="cls-3" x="1006.01" y="329.5" width="104.38" height="83.27"/><rect class="cls-4" x="1006.01" y="321.65" width="104.38" height="83.27"/><path class="cls-7" d="M1006,300.55v21.36h104.38V300.55ZM1020.26,316a5.14,5.14,0,0,1-5.14-5.14h0a5.14,5.14,0,1,1,10.27,0h0a5.13,5.13,0,0,1-5.13,5.14Zm75.89,0a5.14,5.14,0,0,1-5.14-5.14h0a5.14,5.14,0,1,1,10.27,0h0a5.14,5.14,0,0,1-5.13,5.14Z"/><path class="cls-7" d="M1110.39,310.83v11.08H1006V310.83h9.1a5.14,5.14,0,0,0,10.28,0H1091a5.14,5.14,0,0,0,10.27,0h9.11Z"/><path class="cls-4" d="M1018,289h4.59a1,1,0,0,1,1,1v20.7a.16.16,0,0,1-.15.16h-6.29a.16.16,0,0,1-.15-.16h0V290A1,1,0,0,1,1018,289Z"/><path class="cls-4" d="M1093.85,289h4.59a1,1,0,0,1,1,1v20.7a.16.16,0,0,1-.15.16H1093a.16.16,0,0,1-.15-.16h0V290a1,1,0,0,1,1-1Z"/><path class="cls-8" d="M1066.08,342.52c6.07,0,7.42-2.93,8.64-6.28H1080v50h-7.85V348.09h-6.07v-5.57Z"/><path class="cls-8" d="M1044.88,343.09c-2.5,0-4.07,1.35-4.07,4.92v5.36h-7.42v-4.85c0-8,4-12.57,11.71-12.57s11.71,4.57,11.71,12.57c0,15.7-15.64,21.55-15.64,29.76a5.6,5.6,0,0,0,.07,1.08h14.85v7.14h-22.7v-6.14c0-14.71,15.56-17.14,15.56-31.56C1049,344.3,1047.38,343.09,1044.88,343.09Z"/><g class="cls-9"><circle cx="141.4" cy="128.29" r="71.05"/></g><circle class="cls-10" cx="141.4" cy="121.04" r="71.05"/><path class="cls-4" d="M141.4,186.5A65.46,65.46,0,1,1,206.85,121h0A65.53,65.53,0,0,1,141.4,186.5Z"/><rect class="cls-11" x="139.13" y="61.54" width="2.45" height="13.65"/><rect class="cls-11" x="139.13" y="166.55" width="2.45" height="13.65"/><rect class="cls-11" x="81.02" y="119.64" width="13.65" height="2.45"/><rect class="cls-11" x="186.03" y="119.64" width="13.65" height="2.45"/><rect class="cls-11" x="170.65" y="82.52" width="13.65" height="2.45" transform="translate(-7.23 150.02) rotate(-45)"/><rect class="cls-11" x="96.4" y="156.77" width="13.65" height="2.45" transform="translate(-81.48 119.27) rotate(-45)"/><rect class="cls-11" x="102" y="76.92" width="2.45" height="13.65" transform="translate(-28.98 97.52) rotate(-45)"/><rect class="cls-11" x="176.25" y="151.17" width="2.45" height="13.65" transform="translate(-59.74 171.76) rotate(-45)"/><g class="cls-9"><path d="M206.85,121c0,1.26,0,2.5-.1,3.74a65.46,65.46,0,0,0-130.7,0c-.07-1.24-.11-2.48-.11-3.74a65.46,65.46,0,0,1,130.91,0Z"/></g><rect class="cls-12" x="150.03" y="112.35" width="2.1" height="24.87" transform="translate(-20.38 219.64) rotate(-68.51)"/><circle class="cls-13" cx="601.11" cy="335.34" r="305.39"/><ellipse class="cls-3" cx="614.21" cy="512.32" rx="270.72" ry="19.65"/><path class="cls-11" d="M387.56,104.52H824.82a14,14,0,0,1,14,14h0V380.09H372.53V119.54a15,15,0,0,1,15-15Z"/><path class="cls-4" d="M797,421.89H414.33a41.81,41.81,0,0,1-41.8-41.8H838.84a41.8,41.8,0,0,1-41.8,41.8Z"/><rect class="cls-5" x="563.07" y="421.89" width="84.62" height="70.41"/><rect class="cls-14" x="563.07" y="421.89" width="84.62" height="22.32"/><path class="cls-4" d="M519.57,492.3H691.19a12,12,0,0,1,12,12v14.78H507.57V504.3A12,12,0,0,1,519.57,492.3Z"/><path class="cls-15" d="M399.39,124.61a7.33,7.33,0,0,0-7.3,7.31v5.24L642.31,353.5h42.84L420.4,124.61Z"/><path class="cls-15" d="M392.08,217.1V346.2a7.34,7.34,0,0,0,7.3,7.31H606l-213.94-185Z"/><path class="cls-15" d="M811.38,124.61H524.63L789.37,353.5h22a7.32,7.32,0,0,0,7.3-7.3V131.92A7.32,7.32,0,0,0,811.38,124.61Z"/><polygon class="cls-16" points="505.45 124.61 420.4 124.61 685.15 353.5 710.23 353.5 789.37 353.5 524.63 124.61 505.45 124.61"/><polygon class="cls-16" points="392.08 168.54 606.02 353.5 642.31 353.5 392.08 137.16 392.08 168.54"/><circle class="cls-14" cx="603.73" cy="399.58" r="13.19"/><rect class="cls-3" x="715.07" y="367.94" width="46.14" height="48.9" transform="translate(-5.6 10.72) rotate(-0.83)"/><rect class="cls-17" x="712.55" y="366.88" width="46.14" height="46.14" transform="translate(-5.56 10.68) rotate(-0.83)"/><rect class="cls-18" x="731.38" y="355.68" width="7.71" height="15.71" transform="translate(-5.18 10.66) rotate(-0.83)"/><polygon class="cls-3" points="833.6 635 375.88 635 436.32 539.06 773.16 539.06 833.6 635"/><polygon class="cls-5" points="818.23 605.4 390.23 605.4 431.91 539.06 776.55 539.06 818.23 605.4"/><rect class="cls-14" x="390.23" y="605.4" width="428" height="15.03"/><polygon class="cls-4" points="454.78 550.77 433.15 550.77 436.32 543.97 457.26 543.97 454.78 550.77"/><polygon class="cls-4" points="457.58 550.77 460.31 543.97 481.26 543.97 479.21 550.77 457.58 550.77"/><polygon class="cls-4" points="482.01 550.77 484.31 543.97 505.25 543.97 503.64 550.77 482.01 550.77"/><polygon class="cls-4" points="506.52 550.77 508.38 543.97 529.32 543.97 528.14 550.77 506.52 550.77"/><polygon class="cls-4" points="530.97 550.77 532.4 543.97 553.34 543.97 552.6 550.77 530.97 550.77"/><polygon class="cls-4" points="555.43 550.77 556.42 543.97 577.37 543.97 577.06 550.77 555.43 550.77"/><polygon class="cls-4" points="579.82 550.77 580.38 543.97 601.32 543.97 601.45 550.77 579.82 550.77"/><polygon class="cls-4" points="604.06 550.77 604.18 543.97 625.13 543.97 625.69 550.77 604.06 550.77"/><polygon class="cls-4" points="628.45 550.77 628.14 543.97 649.08 543.97 650.08 550.77 628.45 550.77"/><polygon class="cls-4" points="652.91 550.77 652.16 543.97 673.1 543.97 674.53 550.77 652.91 550.77"/><polygon class="cls-4" points="677.36 550.77 676.18 543.97 697.13 543.97 698.99 550.77 677.36 550.77"/><polygon class="cls-4" points="701.87 550.77 700.26 543.97 721.2 543.97 723.5 550.77 701.87 550.77"/><polygon class="cls-4" points="726.3 550.77 724.25 543.97 745.19 543.97 747.93 550.77 726.3 550.77"/><polygon class="cls-4" points="750.73 550.77 772.36 550.77 769.19 543.97 748.25 543.97 750.73 550.77"/><polygon class="cls-4" points="450.29 563.48 427.87 563.48 431.15 556.43 452.86 556.43 450.29 563.48"/><polygon class="cls-4" points="453.19 563.48 456.03 556.43 477.74 556.43 475.62 563.48 453.19 563.48"/><polygon class="cls-4" points="478.52 563.48 480.9 556.43 502.62 556.43 500.94 563.48 478.52 563.48"/><polygon class="cls-4" points="503.93 563.48 505.86 556.43 527.57 556.43 526.35 563.48 503.93 563.48"/><polygon class="cls-4" points="529.28 563.48 530.77 556.43 552.48 556.43 551.71 563.48 529.28 563.48"/><polygon class="cls-4" points="554.64 563.48 555.67 556.43 577.38 556.43 577.06 563.48 554.64 563.48"/><polygon class="cls-4" points="579.93 563.48 580.51 556.43 602.22 556.43 602.35 563.48 579.93 563.48"/><polygon class="cls-4" points="605.06 563.48 605.19 556.43 626.9 556.43 627.48 563.48 605.06 563.48"/><polygon class="cls-4" points="630.35 563.48 630.02 556.43 651.74 556.43 652.77 563.48 630.35 563.48"/><polygon class="cls-4" points="655.7 563.48 654.93 556.43 676.64 556.43 678.12 563.48 655.7 563.48"/><polygon class="cls-4" points="681.05 563.48 679.83 556.43 701.54 556.43 703.48 563.48 681.05 563.48"/><polygon class="cls-4" points="706.46 563.48 704.79 556.43 726.5 556.43 728.89 563.48 706.46 563.48"/><polygon class="cls-4" points="731.79 563.48 729.67 556.43 751.38 556.43 754.22 563.48 731.79 563.48"/><polygon class="cls-4" points="757.12 563.48 779.54 563.48 776.26 556.43 754.54 556.43 757.12 563.48"/><polygon class="cls-4" points="446.26 575.97 423.17 575.97 426.55 568.71 448.91 568.71 446.26 575.97"/><polygon class="cls-4" points="449.25 575.97 452.17 568.71 474.54 568.71 472.35 575.97 449.25 575.97"/><polygon class="cls-4" points="475.34 575.97 477.8 568.71 500.16 568.71 498.44 575.97 475.34 575.97"/><polygon class="cls-4" points="501.51 575.97 503.5 568.71 525.86 568.71 524.61 575.97 501.51 575.97"/><polygon class="cls-4" points="527.63 575.97 529.15 568.71 551.51 568.71 550.72 575.97 527.63 575.97"/><polygon class="cls-4" points="553.74 575.97 554.8 568.71 577.16 568.71 576.84 575.97 553.74 575.97"/><polygon class="cls-4" points="579.79 575.97 580.38 568.71 602.75 568.71 602.88 575.97 579.79 575.97"/><polygon class="cls-4" points="605.67 575.97 605.8 568.71 628.17 568.71 628.76 575.97 605.67 575.97"/><polygon class="cls-4" points="631.72 575.97 631.39 568.71 653.75 568.71 654.81 575.97 631.72 575.97"/><polygon class="cls-4" points="657.83 575.97 657.04 568.71 679.4 568.71 680.93 575.97 657.83 575.97"/><polygon class="cls-4" points="683.95 575.97 682.69 568.71 705.05 568.71 707.04 575.97 683.95 575.97"/><polygon class="cls-4" points="710.12 575.97 708.39 568.71 730.76 568.71 733.21 575.97 710.12 575.97"/><polygon class="cls-4" points="736.2 575.97 734.01 568.71 756.38 568.71 759.3 575.97 736.2 575.97"/><polygon class="cls-4" points="762.29 575.97 785.38 575.97 782 568.71 759.64 568.71 762.29 575.97"/><polygon class="cls-4" points="440.66 588.71 416.76 588.71 420.26 581.19 443.4 581.19 440.66 588.71"/><polygon class="cls-4" points="443.75 588.71 446.77 581.19 469.92 581.19 467.65 588.71 443.75 588.71"/><polygon class="cls-4" points="470.75 588.71 473.29 581.19 496.43 581.19 494.65 588.71 470.75 588.71"/><polygon class="cls-4" points="497.83 588.71 499.89 581.19 523.03 581.19 521.73 588.71 497.83 588.71"/><polygon class="cls-4" points="524.85 588.71 526.43 581.19 549.57 581.19 548.75 588.71 524.85 588.71"/><polygon class="cls-4" points="655.36 581.19 632.22 581.19 628.89 581.19 605.75 581.19 602.59 581.19 579.45 581.19 552.98 581.19 551.87 588.71 578.83 588.71 602.73 588.71 605.61 588.71 629.51 588.71 632.56 588.71 656.46 588.71 655.36 581.19"/><polygon class="cls-4" points="659.59 588.71 658.76 581.19 681.91 581.19 683.49 588.71 659.59 588.71"/><polygon class="cls-4" points="686.61 588.71 685.31 581.19 708.45 581.19 710.51 588.71 686.61 588.71"/><polygon class="cls-4" points="713.69 588.71 711.91 581.19 735.05 581.19 737.59 588.71 713.69 588.71"/><polygon class="cls-4" points="740.68 588.71 738.42 581.19 761.56 581.19 764.59 588.71 740.68 588.71"/><polygon class="cls-4" points="767.68 588.71 791.58 588.71 788.08 581.19 764.94 581.19 767.68 588.71"/><ellipse class="cls-3" cx="896.96" cy="587.92" rx="28.2" ry="44.63" transform="translate(-60.67 1070.75) rotate(-60)"/><path class="cls-4" d="M935.16,598h0a5.48,5.48,0,0,1-.68,1.79h0c-8.08,13.09-51.21,5.61-56-6-.41-1-.83-1.94-1.22-2.8-6-12.86-9.79-9.28-20.3-18a9,9,0,0,1-1.22-1.17s-.1-.09-.14-.15c-5.92-6.73,1.36-15.33,1.36-15.33.44-.35.89-.68,1.33-1h0a34,34,0,0,1,10.87-5.3,30.92,30.92,0,0,1,5.14-1C905,545.6,938,584.71,935.16,598Z"/><path class="cls-5" d="M934.45,599.81c-8.08,13.09-51.22,5.61-56-6-.41-1-.83-1.93-1.22-2.8-6-12.8-10.12-8.91-20.3-18q-.66-.59-1.23-1.17s-.09-.09-.13-.15c-5.92-6.73,1.36-15.33,1.36-15.33.44-.35.89-.68,1.33-1-.86,2.49-1.68,8.11,5.14,13.57a23.28,23.28,0,0,0,5.31,3.08c1.49.65,4.49,2.92,9.84,10.39,8.57,11.93,7.4,13.45,26.4,18.65C923.52,606.19,934,600.08,934.45,599.81Z"/><path class="cls-5" d="M888,559.56c-11-9.13-18.85-9.47-18.85-9.47a30.92,30.92,0,0,1,5.14-1A27.63,27.63,0,0,1,888,559.56Z"/><path class="cls-4" d="M327.32,162.49c-18.46,1.89-20,3.42-21.87,21.87-1.88-18.45-3.41-20-21.86-21.87,18.45-1.88,20-3.41,21.86-21.86C307.34,159.08,308.86,160.61,327.32,162.49Z"/><path class="cls-4" d="M906.79,412.55c-18.45,1.88-20,3.41-21.86,21.86-1.89-18.45-3.41-20-21.86-21.86,18.45-1.89,20-3.41,21.86-21.86C886.81,409.14,888.34,410.66,906.79,412.55Z"/><rect class="cls-11" x="138.62" y="121.04" width="2.23" height="28.13" transform="translate(279.47 270.22) rotate(180)"/><rect class="cls-11" x="147.17" y="89.4" width="2.23" height="34" transform="translate(223.49 272.69) rotate(-150)"/><path class="cls-4" d="M477,175.42H463.56v-7h36.49v7H486.63V208.1H477Z"/><path class="cls-4" d="M504.72,166.05h9.21v7.36h-9.21Zm0,12.23h9.21V208.1h-9.21Z"/><path class="cls-4" d="M522.13,185.79c0-2.53,0-5.3-.06-7.51H531a30.87,30.87,0,0,1,.36,3.8c1.13-1.87,3.82-4.49,9.65-4.49,6.69,0,11,4,11,11.54v19h-9.21v-18c0-3.35-1.25-5.78-5.32-5.78-3.91,0-6.15,1.95-6.15,7.21V208.1h-9.22Z"/><path class="cls-4" d="M569.29,190.86c2.45-3,6.87-7.6,11.46-12.58h10.57l-11.6,11.26,12.7,18.56H582l-8.43-13.27-4.26,3.7v9.57h-9.21v-42h9.21Z"/><path class="cls-4" d="M602.26,195c0,3.73,2.09,7.37,6.68,7.37,3.84,0,4.93-1.38,5.81-3.18H624c-1.18,3.65-4.82,9.64-15.27,9.64-11,0-15.72-7.34-15.72-15.17,0-9.35,5.36-16,16-16,11.43,0,15.31,7.41,15.31,14.85a16.63,16.63,0,0,1-.12,2.52Zm12.85-5.07c-.06-3.48-1.61-6.4-6.1-6.4s-6.19,2.73-6.56,6.4Z"/><path class="cls-4" d="M630.68,186.37c0-3,0-5.59-.07-8.09h9c.12.67.24,3.63.24,5.24,1.47-3.41,5-5.9,10.68-5.93v7.88c-6.68-.16-10.68,1.46-10.68,9.63v13h-9.21Z"/><path class="cls-4" d="M655.63,166.05h9.21v15.4c1.38-1.92,4.13-3.86,9.53-3.86,9.06,0,13.57,6.7,13.57,15.07,0,8.54-4.9,16.13-14.47,16.13-4.94,0-7.13-1.35-8.74-3.52a13.85,13.85,0,0,1-.35,2.83h-8.82c.07-3.23.07-6.52.07-9.75Zm23,26.77c0-5-2.06-8.62-7-8.62-5.26,0-7.13,3.07-7.13,9.15,0,5,1.66,8.88,7,8.88C676.13,202.23,678.59,198.45,678.59,192.82Z"/><path class="cls-4" d="M725.5,193.13c0,9-6,15.66-16.57,15.66-10.33,0-16.35-6.6-16.35-15.5,0-9.2,6.21-15.7,16.78-15.7C719.16,177.59,725.5,183.79,725.5,193.13Zm-23.57.06c0,5.74,2.76,9.14,7.2,9.14s7-3.4,7-9.09c0-6.24-2.55-9.19-7.14-9.19C704.72,184.05,701.93,186.89,701.93,193.19Z"/><path class="cls-4" d="M728.26,178.28h5.14v-8.07h9.21v8.07h6.52v6.21h-6.52V199.2c0,2.27.77,3.15,3.52,3.15a18.05,18.05,0,0,0,2.1-.1v5.68a23.16,23.16,0,0,1-6.2.57c-6.49,0-8.63-3.11-8.63-8.33V184.49h-5.14Z"/><path d="M992.77,75.51v10.6h-5.83V59.63h12.12c6,0,9.25,3.18,9.25,7.27a6.34,6.34,0,0,1-4,6.26c1.37.49,3.43,1.85,3.43,6.59v1.31a20.3,20.3,0,0,0,.39,5h-5.65c-.48-1.16-.57-3.14-.57-6v-.39c0-2.89-.76-4.26-5.21-4.26Zm0-4.56h5c3.26,0,4.52-1.19,4.52-3.41s-1.46-3.35-4.38-3.35h-5.14Z"/><path d="M1031.65,76.13c0,6-3.74,10.44-10.3,10.44s-10.17-4.4-10.17-10.34c0-6.13,3.86-10.46,10.44-10.46C1027.71,65.77,1031.65,69.9,1031.65,76.13Zm-14.65,0c0,3.82,1.71,6.09,4.47,6.09s4.37-2.27,4.37-6.06c0-4.16-1.59-6.13-4.45-6.13C1018.73,70.07,1017,72,1017,76.17Z"/><path d="M1053.75,80.33c0,1.92,0,4,0,5.78h-5.62c-.08-.54-.12-1.6-.16-2.3-1.22,2-3,2.76-5.7,2.76-4.21,0-6.91-2.46-6.91-7.39v-13h5.73V78.07c0,2.2.71,4,3.19,4s3.69-1.34,3.69-5.27V66.23h5.74Z"/><path d="M1058.87,71.24c0-1.69,0-3.54,0-5h5.55a23.62,23.62,0,0,1,.22,2.53c.7-1.25,2.38-3,6-3,4.15,0,6.85,2.69,6.85,7.69V86.11h-5.73v-12c0-2.23-.77-3.85-3.3-3.85s-3.83,1.3-3.83,4.81V86.11h-5.73Z"/><path d="M1101.47,58.07V80.64c0,1.81,0,3.65,0,5.47H1096c-.12-.6-.23-1.63-.27-2.08-1,1.57-2.78,2.54-5.87,2.54-5.23,0-8.56-4-8.56-10.24s3.54-10.56,9.4-10.56c3,0,4.58,1,5,1.9v-9.6Zm-14.29,18.12c0,3.87,1.57,6,4.38,6,3.94,0,4.4-3.16,4.4-6,0-3.4-.5-6-4.25-6C1088.7,70.17,1087.18,72.43,1087.18,76.19Z"/><path d="M1120,86.11V67.21a18,18,0,0,1-4.75,1.1V64.2a12.45,12.45,0,0,0,6.52-3.39h4v25.3Z"/></svg>